The Mist*2007*[BluRay][1080p][ENG, POL]

General information:
Country: USA
Release: 21 November 2007
Genre: Drama, Horror, Sci-Fi, Thriller
Director: Frank Darabont
Screenplay: Frank Darabont, Stephen King (novel)
Original Music: Mark Isham
Cinematography by: Ronn Schmidt
Duration: 2h 5mn
Language: English, Polish
Subtitles: English, Polish
Rating: 6.0/10 - 32676 votes 

Cast:
Thomas Jane  ...  David Drayton  
Marcia Gay Harden  ...  Mrs. Carmody  
Laurie Holden  ...  Amanda Dunfrey  
Andre Braugher  ...  Brent Norton  
Toby Jones  ...  Ollie Weeks  
William Sadler  ...  Jim  
Jeffrey DeMunn  ...  Dan Miller  
Frances Sternhagen  ...  Irene Reppler  
Nathan Gamble  ...  Billy Drayton  
Alexa Davalos  ...  Sally  
Chris Owen  ...  Norm  
Sam Witwer  ...  Private Jessup  
Robert C. Treveiler  ...  Bud Brown (as Robert Treveiler)  
David Jensen  ...  Myron  
Melissa Suzanne McBride  ...  Woman With Kids at Home (as Melissa McBride)  

Plot:
A freak storm unleashes a species of blood-thirsty creatures on a small town, where a small band of citizens hole-up in a supermarket and fight for their lives. 

Specifications:
General
Format                           : Matroska
Overall bit rate                 : 14.4 Mbps

Video
Format                           : AVC
Format/Info                      : Advanced Video Codec
Format profile                   : High@L5.0
Format settings, CABAC           : Yes
Format settings, ReFrames        : 6 frames
Muxing mode                      : Container profile=Unknown@5.0
Codec ID                         : V_MPEG4/ISO/AVC
Bit rate                         : 12.4 Mbps
Width                            : 1 920 pixels
Height                           : 1 058 pixels
Display aspect ratio             : 16:9
Frame rate                       : 23.976 fps

Audio 1
Format                           : DTS
Format/Info                      : Digital Theater Systems
Codec ID                         : A_DTS
Bit rate mode                    : Constant
Bit rate                         : 1 510 Kbps
Channel(s)                       : 6 channels
Channel positions                : Front: L C R, Side: L R, LFE
Sampling rate                    : 48.0 KHz
Bit depth                        : 24 bits
Stream size                      : 1.33 GiB (10%)
Language                         : English

Audio 2
Format                           : AC-3
Format/Info                      : Audio Coding 3
Mode extension                   : CM (complete main)
Codec ID                         : A_AC3
Bit rate mode                    : Constant
Bit rate                         : 448 Kbps
Channel(s)                       : 6 channels
Channel positions                : Front: L C R, Side: L R, LFE
Sampling rate                    : 48.0 KHz
Stream size                      : 404 MiB (3%)
Language                         : Polish

Text 1
Format                           : UTF-8
Codec ID                         : S_TEXT/UTF8
Codec ID/Info                    : UTF-8 Plain Text
Title                            : English_SUB

Text 2
Format                           : UTF-8
Codec ID                         : S_TEXT/UTF8
Codec ID/Info                    : UTF-8 Plain Text
Title                            : Polish_SUB
